Patient4_TMGait_0pt4_01_right_18_EMG.mot
version=1
nRows=30
nColumns=33
inDegrees=no
endheader
time	1LAddLong	2LGlutMax	3LGlutMed	4LIliopsoas	5LSemiMemb	6LBicFemLong	7LRecFem	8LVastMed	9LVastLat	10LGasMed	11LTibAnt	12lTibPost	13LPeroneusLong	14LSol	15LExtDigLong	16LFlexDigLong	17RAddLong	18RGlutMax	19RGlutMed	20RIliopsoas	21RSemiMemb	22RBicFemLong	23RRecFem	24RVastMed	25RVastLat	26RGasMed	27RTibAnt	28RTibPost	29RPeroneusLong	30RSol	31RExtDigLong	32RFlexDigLong
24.21	-0.019073	-0.00412	0.016327	0.000763	-0.039368	0.11581	-0.008392	0.015564	0.086823	0.009003	0.062714	0.004425	-0.020599	-0.081482	0.1506	0.000916	0.02243	-0.040741	0.20569	-0.056305	0.043793	-0.006866	-0.24521	-0.028992	0.045471	0.00351	-0.27039	-0.000305	0.11673	-0.19409	0.001526	-0.006714
24.211	-0.009308	0.038757	-0.026703	0.001831	0.02655	0.11337	-0.056305	0.033112	0.16449	0.004578	0.03006	0.001068	0.006714	-0.063171	0.31235	0.002747	0.015717	0.037994	0.082245	-0.092468	0.06424	0.032349	-0.3096	-0.024109	0.041046	0.007172	-0.6691	-0.002136	0.40848	-0.071411	-0.001221	-0.002136
24.212	-0.006256	0.058899	-0.036469	-0.008698	-0.059052	0.25345	-0.13351	0.037842	0.20004	0.003052	-0.017242	0.009308	0.024567	-0.041351	0.19775	0.000458	0.025635	-0.001831	-0.024567	-0.014496	0.050049	0.029449	-0.26871	-0.034637	0.048065	0.002441	-0.82214	0.00061	0.27176	-0.074158	0.002899	-0.013123
24.213	-0.000153	0.062561	-0.052338	-0.015106	-0.17456	0.38193	-0.16434	0.041809	0.27161	0.00473	-0.032043	-0.016479	0.012665	-0.044861	0.019379	0.005188	-0.00946	-0.024719	-0.05127	0.074921	0.039978	0.002747	-0.28275	0.016327	0.052185	0.005493	-0.83221	-0.002136	0.014954	-0.058136	0.001068	-0.006256
24.214	-0.005188	0.071564	-0.003815	0.00885	-0.16556	0.34897	-0.12802	0.019836	0.31265	-0.007629	-0.033417	0.025024	0.009003	-0.030823	-0.087738	0.012054	-0.01358	0.002747	-0.060577	0.20432	0.1384	0.010834	-0.27969	0.029602	0.039825	-0.00061	-0.69641	0.005341	-0.16419	0.012817	0.001678	-0.016174
24.215	-0.010681	0.09491	-0.009918	0.032959	-0.10162	0.31494	-0.049591	0.007019	0.2269	-0.016632	-0.02182	0.000153	0.033112	0.023499	-0.046844	-0.003052	-0.017548	0.00412	0.018158	0.14999	0.14236	0.045471	-0.224	-0.005646	0.028992	-0.001526	-0.21576	-0.003357	-0.30411	0.08667	0.000763	-0.007324
24.216	0.00824	0.066071	-0.014496	0.009155	-0.033264	0.28091	-0.097351	-0.012817	0.10635	-0.00946	0.068665	0.010986	0.000153	0.010834	0.052338	0.003204	-0.03418	0.048523	0.22369	0.097809	0.092926	0.050049	-0.25482	0.051575	0.033722	-0.002289	0.32837	-0.007629	-0.27527	0.075836	-0.000763	-0.01709
24.217	0.021973	0.077057	-0.038452	0.013733	0.036621	0.23621	-0.20081	-0.066376	0.027771	0.01358	0.14511	0.023346	-0.04303	0.005951	0.071411	0.006714	-0.026245	0.06073	0.11002	0.08667	0.056305	0.032043	-0.20157	0.031891	0.026245	-0.003204	0.26291	-0.003815	-0.18875	0.019836	-0.001068	-0.017395
24.218	0.028534	0.079041	-0.061035	-0.003052	0.12573	0.22858	-0.12421	-0.04776	-0.0383	0.016937	0.054932	0.005951	-0.029907	-0.013428	0.15472	0.002899	0.001678	0.010376	0.032043	0.055695	-0.021667	0.033417	-0.22171	-0.013885	-0.001526	-0.012512	0.14923	-0.006256	-0.17044	0.09903	-0.001373	-0.009155
24.219	-0.001373	0.08255	0.001984	-0.005646	0.12909	0.19104	0.016174	-0.023651	-0.071716	-0.007629	-0.036011	0.014191	0.003815	-0.006561	0.09552	0.010529	-0.001678	-0.028381	0.080414	0.068665	-0.0383	0.045166	-0.24124	-0.022583	0.004272	-0.002747	0.17929	-0.005188	-0.12802	0.18021	0.000305	-0.012817
24.22	0.005646	0.14114	-0.054932	-0.010529	0.07843	0.039825	0.055084	-0.012512	-0.14313	-0.004425	-0.051575	0.015106	0.007172	-0.00946	0.03006	0.011597	-0.00946	-0.024261	0.26291	-0.032349	0.023804	0.062103	-0.24811	0.012665	0.003815	-0.005646	0.14236	-0.001373	-0.025635	0.22614	0	-0.015564
24.221	0.013123	0.13046	-0.023499	-0.023956	0.01297	-0.15106	0.068359	-0.00824	-0.32425	-0.005951	-0.039215	0.014496	-0.003052	-0.00351	0.010834	0.011444	0.001831	-0.073853	0.12528	-0.035248	0.12314	0.019379	-0.28137	0.002289	-0.008545	-0.007324	0.021515	-0.002441	0.16922	0.26459	0.001221	-0.019989
24.222	0.016937	0.1294	-0.041809	-0.016022	-0.001678	-0.3125	0.043488	-0.007935	-0.44693	0.009308	-0.023193	0.006256	-0.014496	-0.016785	-0.010986	0.007935	0.012054	-0.088196	-0.007477	-0.004883	0.11978	-0.022125	-0.30411	-0.027771	-0.015564	-0.007935	-0.011292	-0.003052	0.12787	0.15945	0.000916	-0.020294
24.223	0.031738	0.13458	0.025024	-0.017395	0.011292	-0.36529	-0.000916	-0.007324	-0.4245	-0.007019	-0.02594	0.019073	-0.013275	-0.02182	-0.054321	0.025177	0.016785	-0.090027	0.093384	-0.029144	0.052643	-0.084229	-0.2858	0.012054	0.005646	-0.006714	0.032654	-0.004883	-0.009308	0.065918	-0.001221	-0.021362
24.224	0.026703	0.08728	0.009308	0.005341	0.005188	-0.215	0	0.011292	-0.26001	-0.001831	-0.024109	0.018463	-0.006714	0.027924	-0.043945	0.029755	0.028687	-0.12116	-0.18143	-0.016327	0.013733	-0.10315	-0.26642	-0.027008	-0.020142	-0.003967	0.10346	-0.003052	-0.13931	0.014954	0.002594	-0.024719
24.225	0.001068	0.090485	-0.002289	0.002289	-0.032349	-0.10269	-0.034943	0.013428	-0.071106	0.004578	-0.013885	0.016632	0.005646	0.020599	0.11704	0.022888	0.024872	-0.1001	-0.22446	-0.050354	-0.052948	-0.13092	-0.31708	-0.018158	0.005951	0.007629	0.12054	-0.000458	-0.15045	0.042572	0.007477	-0.019073
24.226	0.001068	0.091553	-0.010834	-0.002747	-0.1091	-0.016022	0.005798	0.008392	0.055695	-0.006866	0.019379	0.008698	0.034485	0.005798	-0.027161	0.017242	-0.001831	-0.071411	-0.062408	-0.10925	-0.13519	-0.15228	-0.34866	-0.029602	0.008545	0.018463	0.11505	-0.005493	-0.084991	0.026703	0	-0.020752
24.227	-0.031586	0.12665	-0.022278	-0.010223	-0.14175	0.035858	0.007324	0.006561	0.16022	0	0.0383	0.01236	0.052795	0.01358	-0.07843	0.015259	-0.002899	-0.082397	-0.017853	-0.11444	-0.10651	-0.15579	-0.32715	-0.016327	-0.007172	0.02243	0.10178	-0.003815	-0.046844	0.006561	0.001068	-0.0177
24.228	-0.014496	0.11749	-0.028534	0.006866	-0.093689	-0.013885	0.053253	-0.002289	0.24612	0.016174	0.045166	0.006866	0.020447	0.040588	-0.015564	0.022278	-0.020599	-0.06958	0	-0.1062	-0.039063	-0.088654	-0.35797	0.078735	0.002289	0.028229	0.10117	-0.002594	0.027161	-0.007477	0.001831	-0.018158
24.229	0.003815	0.1149	-0.076752	-0.010681	-0.066223	-0.24918	0.062714	-0.00351	0.29373	0.023651	0.019073	0.009003	-0.004272	0.027466	0.034637	0.010681	-0.019684	-0.094299	-0.022888	0.025635	-0.006409	0.13825	-0.33966	0.11917	0.012054	0.010834	0.13168	-0.001831	-0.045776	-0.031433	0.001221	-0.020599
24.23	0.019989	0.10727	-0.041504	0.019684	-0.027313	-0.18509	0.010834	-0.003815	0.27145	0.009918	0.027771	0.012054	-0.003357	0.037537	0.13031	-0.00351	-0.033417	-0.14114	-0.044403	0.040131	0.3685	0.31876	-0.34088	0.15427	0.018921	-0.029144	0.12695	-0.00946	-0.04776	0.014191	0.001068	-0.019073
24.231	0.009003	0.14572	-0.00885	0.018768	0.086517	-0.013123	0.009766	0.010071	0.10773	0.01236	-0.031891	0.001984	0.004272	0.058899	0.061493	0.009003	-0.016479	-0.075836	-0.034485	-0.039673	0.50293	0.39673	-0.31769	0.10986	0.001526	-0.054169	0.12741	-0.007935	0.10071	-0.019836	0.001831	-0.019073
24.232	0.017395	0.1506	-0.023346	0.006866	0.068512	0.066376	-0.005798	0.020905	0.046082	0.014038	-0.044098	0.008087	-0.066528	0.082397	-0.021057	0.009308	0.035553	-0.17059	0.002136	0.007324	0.39414	0.11856	-0.32089	0.041351	-0.013885	-0.037231	0.14664	-0.00824	0.13199	-0.11231	-0.002136	-0.028992
24.233	-0.001678	0.13473	-0.046997	0.004425	-0.000153	0.20264	0.028839	0.02594	0.055847	0.019073	-0.002594	0.007477	-0.10056	0.090637	-0.087585	0.007172	0.019684	-0.19226	0.014954	0.10117	0.21439	-0.011444	-0.29114	-0.037994	-0.020447	-0.036926	0.12848	-0.000458	0.056915	0.040588	0.00351	-0.029755
24.234	-0.00885	0.15533	-0.071564	0.003357	-0.03952	0.2681	0.075226	0.029907	0.052032	0.022736	0.014801	-0.008698	-0.035858	0.072937	-0.10971	0.005341	0.004272	-0.21744	-0.006409	0.10681	0.12558	-0.014954	-0.29938	-0.079956	-0.020294	-0.055389	0.063629	0.003052	0.14008	0.21484	0.001373	-0.024109
24.235	-0.014343	0.17685	0.03418	0.007629	-0.080109	0.12878	0.089874	0.027618	0.009766	0.009766	0.004272	-0.001678	0.083618	0.10208	-0.074768	-0.003967	-0.033264	-0.20035	-0.011749	0.060425	0.23086	0.05249	-0.32684	-0.10284	-0.02655	-0.059204	0.009918	-0.002441	0.18768	0.16647	0	-0.029602
24.236	0.006256	0.18249	-0.0383	0.0177	-0.086365	0.01297	0.049591	0.014496	-0.019226	-0.007019	0.00824	-0.014496	0.12528	0.12085	-0.025635	0.000916	-0.01358	-0.15686	-0.002441	0.027466	0.22949	0.11002	-0.32044	-0.070953	-0.03479	-0.026703	0.05127	-0.056458	-0.006561	-0.083008	-0.001221	-0.030518
24.237	0.021362	0.18204	0.027618	-0.00351	-0.035553	0.10468	0.007019	0.023041	-0.039368	-0.02655	0.011749	-0.017548	-0.032959	0.12482	-0.015869	-0.011444	0.005951	-0.17258	-0.033417	-0.042419	0.09201	0.10529	-0.33341	-0.018616	-0.004578	-0.001221	0.06958	-0.33249	-0.23926	0.091705	-0.000458	-0.028687
24.238	0.01236	0.16632	-0.002136	-0.00351	0.076141	0.11536	-0.012054	0.014496	-0.033569	-0.04715	-0.002289	-0.01358	0.053864	0.11963	-0.025024	-0.023804	-0.020142	-0.16907	-0.071869	-0.11765	-0.20996	0.1004	-0.33981	0.011444	0.005341	0.030212	0.10223	0.21088	-0.56442	0.69336	-0.001221	-0.015106
24.239	0.009155	0.18601	-0.006409	-0.015259	0.11841	0.1358	-0.03891	0.010529	-0.02533	-0.047302	0.007629	-0.015717	-0.005646	0.11368	-0.007324	-0.019684	-0.019836	-0.15671	-0.045166	-0.062561	-0.026245	0.055542	-0.35782	0.063782	0.007172	0.033875	0.11826	0.1535	-0.68848	0.74921	-0.001068	-0.012054
